<svg width="153" height="32" viewBox="0 0 153 32" fill="none" xmlns="http://www.w3.org/2000/svg">
<g clip-path="url(#clip0)">
<path fill-rule="evenodd" clip-rule="evenodd" d="M14 30C21.732 30 28 23.732 28 16C28 8.26801 21.732 2 14 2C6.26801 2 0 8.26801 0 16C0 23.732 6.26801 30 14 30ZM15.4705 22.014C15.4705 19.8617 15.1978 19.2384 14.3798 17.4464L10.0848 8.06758H7.03645L12.5488 20.0565V24.8676H15.4705V22.014ZM14.409 16.19L17.9832 8.06758H20.9634L17.3794 16.19H14.409Z" fill="#FC3F1D"/>
<path d="M35.5 5.15V26H39.13V18.56H40.9C45.64 18.56 48.67 16.37 48.67 11.75C48.67 7.55 45.85 5.15 40.93 5.15H35.5ZM40.93 15.74H39.13V7.97H41.05C43.6 7.97 44.98 9.14 44.98 11.75C44.98 14.48 43.45 15.74 40.93 15.74ZM54.6266 16.58C55.6166 14.75 57.0866 13.82 59.2766 13.94V10.58C57.2366 10.7 55.5566 11.93 54.7166 13.91H54.6266L54.5366 10.91H51.0566V26H54.6266V16.58ZM72.0632 15.71C72.0632 12.05 70.2032 10.67 66.4232 10.67C64.0532 10.67 62.1932 11.42 61.1132 12.05V15.02C62.0732 14.3 64.1732 13.52 66.0032 13.52C67.7132 13.52 68.4932 14.12 68.4932 15.74V16.58H67.9232C62.4632 16.58 60.0332 18.38 60.0332 21.44C60.0332 24.5 61.8932 26.21 64.6532 26.21C66.7532 26.21 67.6532 25.52 68.3432 24.8H68.4932C68.5232 25.19 68.6432 25.7 68.7632 26H72.2432C72.1232 24.77 72.0632 23.54 72.0632 22.31V15.71ZM68.4932 22.4C68.0432 23.06 67.2032 23.6 65.9432 23.6C64.4432 23.6 63.6932 22.7 63.6932 21.35C63.6932 19.58 64.9232 18.95 67.9832 18.95H68.4932V22.4ZM81.4136 26.3C83.0636 26.3 84.2336 26 85.1036 25.37V22.46C84.2036 23.09 83.1236 23.48 81.6236 23.48C79.0736 23.48 78.0236 21.5 78.0236 18.38C78.0236 15.11 79.3136 13.43 81.6536 13.43C83.0336 13.43 84.3836 13.91 85.1036 14.36V11.33C84.3536 10.91 83.0336 10.61 81.2636 10.61C76.7036 10.61 74.3336 13.88 74.3336 18.47C74.3336 23.51 76.6436 26.3 81.4136 26.3ZM86.302 10.91V13.73H88.192V21.47C88.192 24.29 89.782 26.3 93.082 26.3C94.822 26.3 95.812 25.91 95.812 25.91V23C95.812 23 95.152 23.48 93.952 23.48C92.452 23.48 91.762 22.61 91.762 21.5V13.73H95.512V10.91H91.762V7.61H88.192V10.91H86.302ZM99.3794 9.05C100.549 9.05 101.479 8.24 101.479 6.95C101.479 5.69 100.549 4.85 99.3794 4.85C98.2094 4.85 97.3094 5.69 97.3094 6.95C97.3094 8.24 98.2094 9.05 99.3794 9.05ZM97.6094 10.91V26H101.179V10.91H97.6094ZM110.652 26.3C112.302 26.3 113.472 26 114.342 25.37V22.46C113.442 23.09 112.362 23.48 110.862 23.48C108.312 23.48 107.262 21.5 107.262 18.38C107.262 15.11 108.552 13.43 110.892 13.43C112.272 13.43 113.622 13.91 114.342 14.36V11.33C113.592 10.91 112.272 10.61 110.502 10.61C105.942 10.61 103.572 13.88 103.572 18.47C103.572 23.51 105.882 26.3 110.652 26.3ZM124.99 21.74C124.33 22.55 123.28 23.24 121.99 23.24C120.73 23.24 120.16 22.7 120.16 21.56V10.91H116.59V21.92C116.59 24.92 117.79 26.24 120.7 26.24C122.83 26.24 124.09 25.46 124.81 24.74H124.99L125.08 26H128.56V10.91H124.99V21.74ZM135.134 15.17C135.794 14.36 136.694 13.67 137.984 13.67C139.244 13.67 139.664 14.21 139.664 15.35V26H143.234V15.17C143.894 14.36 144.794 13.67 146.084 13.67C147.344 13.67 147.764 14.21 147.764 15.35V26H151.334V14.99C151.334 11.99 150.284 10.67 147.374 10.67C145.064 10.67 143.684 11.57 142.844 12.59C142.274 11.27 141.074 10.67 139.124 10.67C136.994 10.67 136.034 11.45 135.314 12.17H135.134L135.044 10.91H131.564V26H135.134V15.17Z" fill="black"/>
</g>
<defs>
</defs>
</svg>